<?xml version="1.0" encoding="UTF-8" standalone="no"?>
<!-- Generator: Adobe Illustrator 16.0.0, SVG Export Plug-In . SVG Version: 6.00 Build 0)  -->

<svg
   xmlns:dc="http://purl.org/dc/elements/1.1/"
   xmlns:cc="http://creativecommons.org/ns#"
   xmlns:rdf="http://www.w3.org/1999/02/22-rdf-syntax-ns#"
   xmlns:svg="http://www.w3.org/2000/svg"
   xmlns="http://www.w3.org/2000/svg"
   xmlns:sodipodi="http://sodipodi.sourceforge.net/DTD/sodipodi-0.dtd"
   xmlns:inkscape="http://www.inkscape.org/namespaces/inkscape"
   version="1.1"
   id="Capa_1"
   x="0px"
   y="0px"
   width="78.625px"
   height="78.625px"
   viewBox="0 0 78.625 78.625"
   style="enable-background:new 0 0 78.625 78.625;"
   xml:space="preserve"
   sodipodi:docname="mobile-application.svg"
   inkscape:version="0.92.0 r15299"><metadata
     id="metadata5879"><rdf:RDF><cc:Work
         rdf:about=""><dc:format>image/svg+xml</dc:format><dc:type
           rdf:resource="http://purl.org/dc/dcmitype/StillImage" /></cc:Work></rdf:RDF></metadata><defs
     id="defs5877" /><sodipodi:namedview
     pagecolor="#ffffff"
     bordercolor="#666666"
     borderopacity="1"
     objecttolerance="10"
     gridtolerance="10"
     guidetolerance="10"
     inkscape:pageopacity="0"
     inkscape:pageshadow="2"
     inkscape:window-width="1920"
     inkscape:window-height="1058"
     id="namedview5875"
     showgrid="false"
     inkscape:zoom="3.0015898"
     inkscape:cx="-198.62988"
     inkscape:cy="80.714618"
     inkscape:window-x="-8"
     inkscape:window-y="-8"
     inkscape:window-maximized="1"
     inkscape:current-layer="g5840" /><g
     id="g5842"><g
       id="g5840"><g
         id="g6667"
         transform="matrix(2.4340571,0,0,2.5758854,-43.018536,-60.815968)"
         style="fill:#494943;fill-opacity:1"><path
           id="path5824"
           d="m 22.712891,23.792969 c -1.087173,0 -2.007813,0.921567 -2.007813,2.009765 v 25.363282 c 0,1.088198 0.92064,2.009765 2.007813,2.009765 h 13.050781 c 0.450763,0 0.869229,-0.164762 1.208984,-0.427734 C 35.63511,51.924248 34.560547,51.537109 34.560547,51.537109 33.815843,51.275692 33.159595,50.936672 32.53125,50.302734 32.246076,50.004639 31.871727,49.701661 31.517578,49.408203 H 22.126953 V 26.890625 h 14.222656 v 6.527344 c 0.08891,0.161629 0.18078,0.320711 0.267579,0.484375 l 0.621093,1.111328 c 0,0 0.287053,-0.06837 0.533203,-0.125 v -9.085938 c 3.74e-4,-1.088198 -0.92064,-2.009765 -2.007812,-2.009765 z m 4.433593,1.423828 h 4.183594 c 0.166941,0 0.25,0.08454 0.25,0.251953 0,0.167415 -0.08306,0.25 -0.25,0.25 h -4.183594 c -0.166941,0 -0.25,-0.08259 -0.25,-0.25 7.47e-4,-0.167415 0.08306,-0.251953 0.25,-0.251953 z m 2.091797,24.943359 c 0.585228,0 1.003907,0.420281 1.003907,1.00586 0,0.502993 -0.418679,0.91992 -1.003907,0.919922 -0.585228,0 -1.003906,-0.417581 -1.003906,-1.003907 0,-0.585953 0.418305,-0.921875 1.003906,-0.921875 z"
           style="stroke-width:0.3735823;fill:#494943;fill-opacity:1"
           inkscape:connector-curvature="0" /><g
           transform="matrix(0.10688699,0,0,0.11443109,5.3061804,104.66139)"
           id="g6488"
           style="fill:#494943;fill-opacity:1"><g
             id="g6430"
             style="fill:#494943;fill-opacity:1"><g
               id="g6428"
               style="fill:#494943;fill-opacity:1"><path
                 style="stroke-width:0.55755806;fill:#494943;fill-opacity:1"
                 inkscape:connector-curvature="0"
                 d="m 401.84561,-491.09744 c 2.01396,4.74034 0.38102,10.22314 -3.48361,13.19299 l -46.70209,32.04012 c -7.72925,5.14012 -18.01677,4.39766 -24.87512,-2.39873 -20.8472,-20.78895 -48.2806,-29.86984 -48.2806,-29.86984 v 0 c -6.96721,-2.2845 -13.11795,-5.25435 -18.99654,-10.79426 -3.91905,-3.82654 -9.96093,-7.88153 -13.93442,-11.36539 -10.55968,-9.08089 -21.93583,-17.13375 -34.29174,-23.01634 -5.49757,-2.51295 -6.53176,-6.3966 -3.81019,-12.10785 1.36078,-2.85563 4.95325,-6.22527 7.94697,-7.42463 6.74948,-2.62717 13.44454,-1.48492 19.70414,0.34268 3.86463,0.79957 19.97631,11.65095 27.48783,15.5346 6.47733,3.36964 8.1647,-2.85563 8.21913,-10.39448 0,-3.76942 -1.03419,-7.25329 -2.12282,-10.79426 -11.97489,-30.72653 -24.6574,-61.1675 -37.3399,-91.95114 -2.88486,-6.73927 -0.81647,-13.2501 4.95325,-16.79107 5.71529,-3.14119 12.6825,-1.19937 16.38384,4.85456 5.2254,8.50976 10.12423,16.96241 15.34964,25.81486 4.57223,8.05286 9.52548,15.76304 14.09771,23.81591 l 5.82415,9.70912 c 0,0 41.36782,-11.59384 85.29391,4.62612 2.39498,1.02802 4.40894,2.7414 5.17098,5.4828 3.97349,10.22314 14.36987,38.49383 15.29521,64.99403 1.08863,6.91061 2.99372,12.7932 4.02792,16.67685 z"
                 id="path6426" /></g></g><g
             id="g6432"
             style="fill:#494943;fill-opacity:1" /><g
             id="g6434"
             style="fill:#494943;fill-opacity:1" /><g
             id="g6436"
             style="fill:#494943;fill-opacity:1" /><g
             id="g6438"
             style="fill:#494943;fill-opacity:1" /><g
             id="g6440"
             style="fill:#494943;fill-opacity:1" /><g
             id="g6442"
             style="fill:#494943;fill-opacity:1" /><g
             id="g6444"
             style="fill:#494943;fill-opacity:1" /><g
             id="g6446"
             style="fill:#494943;fill-opacity:1" /><g
             id="g6448"
             style="fill:#494943;fill-opacity:1" /><g
             id="g6450"
             style="fill:#494943;fill-opacity:1" /><g
             id="g6452"
             style="fill:#494943;fill-opacity:1" /><g
             id="g6454"
             style="fill:#494943;fill-opacity:1" /><g
             id="g6456"
             style="fill:#494943;fill-opacity:1" /><g
             id="g6458"
             style="fill:#494943;fill-opacity:1" /><g
             id="g6460"
             style="fill:#494943;fill-opacity:1" /></g></g><g
         id="g6642"><g
           style="fill:#ff2a2a"
           id="g6564"
           transform="matrix(0.10688699,0,0,0.11443109,6.4581429,102.83633)"><g
             style="fill:#ff2a2a"
             id="g6532"><g
               style="fill:#ff2a2a"
               id="g6530" /></g><g
             style="fill:#ff2a2a"
             id="g6534" /><g
             style="fill:#ff2a2a"
             id="g6536" /><g
             style="fill:#ff2a2a"
             id="g6538" /><g
             style="fill:#ff2a2a"
             id="g6540" /><g
             style="fill:#ff2a2a"
             id="g6542" /><g
             style="fill:#ff2a2a"
             id="g6544" /><g
             style="fill:#ff2a2a"
             id="g6546" /><g
             style="fill:#ff2a2a"
             id="g6548" /><g
             style="fill:#ff2a2a"
             id="g6550" /><g
             style="fill:#ff2a2a"
             id="g6552" /><g
             style="fill:#ff2a2a"
             id="g6554" /><g
             style="fill:#ff2a2a"
             id="g6556" /><g
             style="fill:#ff2a2a"
             id="g6558" /><g
             style="fill:#ff2a2a"
             id="g6560" /><g
             style="fill:#ff2a2a"
             id="g6562" /></g><g
           transform="matrix(0.10688699,0,0,0.11443109,4.792359,106.25119)"
           id="g6602"
           style="fill:#ff2a2a"><g
             id="g6570"
             style="fill:#ff2a2a"><g
               id="g6568"
               style="fill:#ff2a2a" /></g><g
             id="g6572"
             style="fill:#ff2a2a" /><g
             id="g6574"
             style="fill:#ff2a2a" /><g
             id="g6576"
             style="fill:#ff2a2a" /><g
             id="g6578"
             style="fill:#ff2a2a" /><g
             id="g6580"
             style="fill:#ff2a2a" /><g
             id="g6582"
             style="fill:#ff2a2a" /><g
             id="g6584"
             style="fill:#ff2a2a" /><g
             id="g6586"
             style="fill:#ff2a2a" /><g
             id="g6588"
             style="fill:#ff2a2a" /><g
             id="g6590"
             style="fill:#ff2a2a" /><g
             id="g6592"
             style="fill:#ff2a2a" /><g
             id="g6594"
             style="fill:#ff2a2a" /><g
             id="g6596"
             style="fill:#ff2a2a" /><g
             id="g6598"
             style="fill:#ff2a2a" /><g
             id="g6600"
             style="fill:#ff2a2a" /></g></g></g></g><g
     id="g5844" /><g
     id="g5846" /><g
     id="g5848" /><g
     id="g5850" /><g
     id="g5852" /><g
     id="g5854" /><g
     id="g5856" /><g
     id="g5858" /><g
     id="g5860" /><g
     id="g5862" /><g
     id="g5864" /><g
     id="g5866" /><g
     id="g5868" /><g
     id="g5870" /><g
     id="g5872" /></svg>
