<?xml version="1.0" encoding="UTF-8" standalone="no"?>
<!-- Created with Inkscape (http://www.inkscape.org/) -->

<svg
   xmlns:dc="http://purl.org/dc/elements/1.1/"
   xmlns:cc="http://creativecommons.org/ns#"
   xmlns:rdf="http://www.w3.org/1999/02/22-rdf-syntax-ns#"
   xmlns:svg="http://www.w3.org/2000/svg"
   xmlns="http://www.w3.org/2000/svg"
   xmlns:sodipodi="http://sodipodi.sourceforge.net/DTD/sodipodi-0.dtd"
   xmlns:inkscape="http://www.inkscape.org/namespaces/inkscape"
   width="16px"
   height="16px"
   viewBox="0 0 16 16"
   version="1.1"
   id="SVGRoot"
   inkscape:version="0.92.0 r15299"
   sodipodi:docname="it.svg">
  <sodipodi:namedview
     id="base"
     pagecolor="#ffffff"
     bordercolor="#666666"
     borderopacity="1.0"
     inkscape:pageopacity="0.0"
     inkscape:pageshadow="2"
     inkscape:zoom="45.254834"
     inkscape:cx="11.840082"
     inkscape:cy="9.6929921"
     inkscape:document-units="px"
     inkscape:current-layer="layer1-2"
     showgrid="false"
     inkscape:window-width="1920"
     inkscape:window-height="1058"
     inkscape:window-x="-8"
     inkscape:window-y="-8"
     inkscape:window-maximized="1"
     inkscape:grid-bbox="true"
     inkscape:snap-global="false" />
  <defs
     id="defs5635">
    <clipPath
       id="clipPath7796"
       clipPathUnits="userSpaceOnUse">
      <rect
         y="0.4375"
         x="-12.59375"
         height="4.375"
         width="12.34375"
         id="rect7798"
         style="opacity:1;fill:#000000;fill-opacity:1;stroke:none;stroke-width:0.88558745;stroke-miterlimit:4;stroke-dasharray:none;stroke-opacity:1" />
    </clipPath>
    <clipPath
       clipPathUnits="userSpaceOnUse"
       id="clipPath4523">
      <rect
         style="opacity:1;fill:#494943;fill-opacity:1;stroke:none;stroke-width:1.8486495;stroke-miterlimit:4;stroke-dasharray:none;stroke-opacity:1"
         id="rect4525"
         width="15.259034"
         height="5.2105675"
         x="-12.196557"
         y="0.96805471" />
    </clipPath>
  </defs>
  <metadata
     id="metadata5638">
    <rdf:RDF>
      <cc:Work
         rdf:about="">
        <dc:format>image/svg+xml</dc:format>
        <dc:type
           rdf:resource="http://purl.org/dc/dcmitype/StillImage" />
        <dc:title />
      </cc:Work>
    </rdf:RDF>
  </metadata>
  <g
     id="layer1"
     inkscape:groupmode="layer"
     inkscape:label="Layer 1">
    <g
       id="g6282"
       transform="matrix(0.02362545,0,0,0.02087035,0.18642082,3.9755008)"
       style="fill:#494943;fill-opacity:1">
      <g
         id="g6198"
         style="fill:#494943;fill-opacity:1">
        <g
           id="g6196"
           style="fill:#494943;fill-opacity:1">
          <path
             style="stroke-width:0.02220521;fill:#494943;fill-opacity:1"
             d="M 0.91601562 4.5585938 C 0.51336708 4.5585938 0.18554687 4.8474316 0.18554688 5.203125 L 0.18554688 11.691406 C 0.18554688 12.0471 0.51336708 12.335937 0.91601562 12.335938 L 4.5605469 12.335938 L 4.5605469 12.804688 C 4.5605469 13.234972 4.1648203 13.585937 3.6777344 13.585938 L 2.875 13.585938 C 2.7210093 13.585938 2.5957031 13.695977 2.5957031 13.832031 C 2.5957031 13.968085 2.7210093 14.078125 2.875 14.078125 L 8.9707031 14.078125 L 8.9707031 13.585938 L 8.7910156 13.585938 C 8.3039297 13.585938 7.9082031 13.234972 7.9082031 12.804688 L 7.9082031 12.335938 L 8.9707031 12.335938 L 8.9707031 11.84375 L 0.91601562 11.84375 C 0.82087594 11.84375 0.74414063 11.775472 0.74414062 11.691406 L 0.74414062 10.396484 L 8.9707031 10.396484 L 8.9707031 9.9023438 L 0.74414062 9.9023438 L 0.74414062 5.203125 C 0.74414062 5.1190801 0.82085231 5.0507812 0.91601562 5.0507812 L 8.9707031 5.0507812 L 8.9707031 4.5585938 L 0.91601562 4.5585938 z M 5.1191406 12.335938 L 7.3496094 12.335938 L 7.3496094 12.804688 C 7.3496094 13.098605 7.4642065 13.370242 7.6542969 13.585938 L 4.8144531 13.585938 C 5.0045435 13.370222 5.1191406 13.098605 5.1191406 12.804688 L 5.1191406 12.335938 z "
             transform="matrix(42.327236,0,0,47.914865,-7.8906781,-190.48558)"
             id="path6194" />
        </g>
      </g>
      <g
         id="g6204"
         style="fill:#494943;fill-opacity:1">
        <g
           id="g6202"
           style="fill:#494943;fill-opacity:1">
          <circle
             id="circle6200"
             r="12.738"
             cy="342.30499"
             cx="256.00299"
             style="fill:#494943;fill-opacity:1" />
        </g>
      </g>
      <g
         id="g6210"
         style="fill:#494943;fill-opacity:1">
        <g
           id="g6208"
           style="fill:#494943;fill-opacity:1">
          <path
             id="path6206"
             d="m 276.238,109.254 c -4.61,-4.609 -12.081,-4.609 -16.693,0 l -83.414,83.414 c -4.609,4.609 -4.609,12.083 0,16.693 2.306,2.305 5.325,3.457 8.347,3.457 3.022,0 6.041,-1.152 8.346,-3.457 l 83.414,-83.414 c 4.609,-4.609 4.609,-12.083 0,-16.693 z"
             inkscape:connector-curvature="0"
             style="fill:#494943;fill-opacity:1" />
        </g>
      </g>
      <g
         id="g6216"
         style="fill:#494943;fill-opacity:1">
        <g
           id="g6214"
           style="fill:#494943;fill-opacity:1">
          <path
             id="path6212"
             d="m 325.678,157.593 c -4.608,-4.609 -12.079,-4.609 -16.692,-10e-4 l -33.23,33.228 c -4.609,4.61 -4.609,12.084 0,16.693 2.305,2.305 5.325,3.457 8.346,3.457 3.02,0 6.041,-1.152 8.346,-3.457 l 33.23,-33.228 c 4.609,-4.609 4.609,-12.083 0,-16.692 z"
             inkscape:connector-curvature="0"
             style="fill:#494943;fill-opacity:1" />
        </g>
      </g>
      <g
         id="g6218"
         style="fill:#494943;fill-opacity:1" />
      <g
         id="g6220"
         style="fill:#494943;fill-opacity:1" />
      <g
         id="g6222"
         style="fill:#494943;fill-opacity:1" />
      <g
         id="g6224"
         style="fill:#494943;fill-opacity:1" />
      <g
         id="g6226"
         style="fill:#494943;fill-opacity:1" />
      <g
         id="g6228"
         style="fill:#494943;fill-opacity:1" />
      <g
         id="g6230"
         style="fill:#494943;fill-opacity:1" />
      <g
         id="g6232"
         style="fill:#494943;fill-opacity:1" />
      <g
         id="g6234"
         style="fill:#494943;fill-opacity:1" />
      <g
         id="g6236"
         style="fill:#494943;fill-opacity:1" />
      <g
         id="g6238"
         style="fill:#494943;fill-opacity:1" />
      <g
         id="g6240"
         style="fill:#494943;fill-opacity:1" />
      <g
         id="g6242"
         style="fill:#494943;fill-opacity:1" />
      <g
         id="g6244"
         style="fill:#494943;fill-opacity:1" />
      <g
         id="g6246"
         style="fill:#494943;fill-opacity:1" />
    </g>
    <g
       inkscape:label="Layer 1"
       id="layer1-2"
       transform="matrix(0.6860176,0,0,0.73738871,7.2832336,3.1136915)">
      <rect
         ry="0.96574664"
         y="0.44163126"
         x="3.5332181"
         height="15.150151"
         width="8.8710642"
         id="rect7779"
         style="opacity:1;fill:none;stroke:#494943;stroke-width:0.761343;stroke-miterlimit:4;stroke-dasharray:none;stroke-opacity:1" />
      <rect
         style="opacity:1;fill:none;stroke:#494943;stroke-width:0.75590551;stroke-miterlimit:4;stroke-dasharray:none;stroke-opacity:1"
         id="rect7800"
         width="10"
         height="3.78125"
         x="-11.375"
         y="0.031249991"
         clip-path="url(#clipPath4523)"
         transform="matrix(0.67169199,0,0,0.49206661,12.266411,4.4643847)" />
      <ellipse
         ry="0.5625"
         rx="0.59375"
         cy="9.5625"
         cx="4.96875"
         id="path7802"
         style="opacity:1;fill:#494943;fill-opacity:1;stroke:none;stroke-width:0.33745971;stroke-miterlimit:4;stroke-dasharray:none;stroke-opacity:1" />
      <ellipse
         style="opacity:1;fill:#494943;fill-opacity:1;stroke:none;stroke-width:0.17785689;stroke-miterlimit:4;stroke-dasharray:none;stroke-opacity:1"
         id="ellipse7804"
         cx="4.9375"
         cy="10.796875"
         rx="0.3125"
         ry="0.296875" />
      <rect
         transform="matrix(0.67169199,0,0,0.49206661,12.243635,2.4301794)"
         clip-path="url(#clipPath4523)"
         y="0.031249991"
         x="-11.375"
         height="3.78125"
         width="10"
         id="rect4527"
         style="opacity:1;fill:none;stroke:#494943;stroke-width:0.75590551;stroke-miterlimit:4;stroke-dasharray:none;stroke-opacity:1" />
    </g>
  </g>
</svg>
