<?xml version="1.0" encoding="UTF-8" standalone="no"?>
<!-- Generator: Adobe Illustrator 16.0.0, SVG Export Plug-In . SVG Version: 6.00 Build 0)  -->

<svg
   xmlns:dc="http://purl.org/dc/elements/1.1/"
   xmlns:cc="http://creativecommons.org/ns#"
   xmlns:rdf="http://www.w3.org/1999/02/22-rdf-syntax-ns#"
   xmlns:svg="http://www.w3.org/2000/svg"
   xmlns="http://www.w3.org/2000/svg"
   xmlns:sodipodi="http://sodipodi.sourceforge.net/DTD/sodipodi-0.dtd"
   xmlns:inkscape="http://www.inkscape.org/namespaces/inkscape"
   version="1.1"
   id="Capa_1"
   x="0px"
   y="0px"
   width="485.213px"
   height="485.213px"
   viewBox="0 0 485.213 485.213"
   style="enable-background:new 0 0 485.213 485.213;"
   xml:space="preserve"
   sodipodi:docname="seo.svg"
   inkscape:version="0.92.0 r15299"><metadata
     id="metadata47"><rdf:RDF><cc:Work
         rdf:about=""><dc:format>image/svg+xml</dc:format><dc:type
           rdf:resource="http://purl.org/dc/dcmitype/StillImage" /></cc:Work></rdf:RDF></metadata><defs
     id="defs45" /><sodipodi:namedview
     pagecolor="#ffffff"
     bordercolor="#666666"
     borderopacity="1"
     objecttolerance="10"
     gridtolerance="10"
     guidetolerance="10"
     inkscape:pageopacity="0"
     inkscape:pageshadow="2"
     inkscape:window-width="1920"
     inkscape:window-height="1058"
     id="namedview43"
     showgrid="false"
     inkscape:zoom="1.3757026"
     inkscape:cx="230.42191"
     inkscape:cy="195.94175"
     inkscape:window-x="-8"
     inkscape:window-y="-8"
     inkscape:window-maximized="1"
     inkscape:current-layer="Capa_1" /><g
     id="g10"
     transform="matrix(0.63970006,0,0,0.64210045,3.6031101e-4,79.887613)"
     style="fill:#494943;fill-opacity:1"><g
       id="g8"
       style="fill:#494943;fill-opacity:1"><path
         d="M 471.882,407.567 360.567,296.243 c -16.586,25.795 -38.536,47.734 -64.331,64.321 L 407.56,471.888 c 17.772,17.768 46.587,17.768 64.321,0 17.773,-17.739 17.773,-46.554 0.001,-64.321 z"
         id="path2"
         inkscape:connector-curvature="0"
         style="fill:#494943;fill-opacity:1" /><path
         d="M 363.909,181.955 C 363.909,81.473 282.44,0 181.956,0 81.474,0 0.001,81.473 0.001,181.955 c 0,100.482 81.473,181.951 181.955,181.951 100.484,0 181.953,-81.469 181.953,-181.951 z M 181.956,318.416 c -75.252,0 -136.465,-61.208 -136.465,-136.46 0,-75.252 61.213,-136.465 136.465,-136.465 75.25,0 136.468,61.213 136.468,136.465 0,75.252 -61.218,136.46 -136.468,136.46 z"
         id="path4"
         inkscape:connector-curvature="0"
         style="fill:#494943;fill-opacity:1" /><path
         d="m 75.817,181.955 h 30.322 c 0,-41.803 34.014,-75.814 75.816,-75.814 V 75.816 c -58.517,0 -106.138,47.621 -106.138,106.139 z"
         id="path6"
         inkscape:connector-curvature="0"
         style="fill:#494943;fill-opacity:1" /></g></g><g
     id="g12" /><g
     id="g14" /><g
     id="g16" /><g
     id="g18" /><g
     id="g20" /><g
     id="g22" /><g
     id="g24" /><g
     id="g26" /><g
     id="g28" /><g
     id="g30" /><g
     id="g32" /><g
     id="g34" /><g
     id="g36" /><g
     id="g38" /><g
     id="g40" /><path
     sodipodi:type="star"
     style="opacity:1;fill:#494943;stroke:#eeeeee;stroke-opacity:1;fill-opacity:1"
     id="path4524"
     sodipodi:sides="3"
     sodipodi:cx="294.0062"
     sodipodi:cy="322.79001"
     sodipodi:r1="97.675629"
     sodipodi:r2="48.837814"
     sodipodi:arg1="0.5295896"
     sodipodi:arg2="1.5767871"
     inkscape:flatsided="false"
     inkscape:rounded="0"
     inkscape:randomized="0"
     d="m 378.30168,372.1337 -84.58806,-0.50675 -84.58806,-0.50676 42.73289,-73.00203 42.7329,-73.00203 41.85516,73.50879 z"
     inkscape:transform-center-x="0.30314748"
     inkscape:transform-center-y="-15.449888"
     transform="matrix(1.036101,0,0,0.63934739,93.664277,-18.058967)" /><rect
     style="opacity:1;fill:#494943;stroke:none;stroke-width:1.02895176;stroke-opacity:1;fill-opacity:1"
     id="rect4526"
     width="63.779182"
     height="73.678574"
     x="366.3942"
     y="207.17654" /></svg>
