<?xml version="1.0" encoding="UTF-8" standalone="no"?>
<!-- Generator: Adobe Illustrator 16.0.0, SVG Export Plug-In . SVG Version: 6.00 Build 0)  -->

<svg
   xmlns:dc="http://purl.org/dc/elements/1.1/"
   xmlns:cc="http://creativecommons.org/ns#"
   xmlns:rdf="http://www.w3.org/1999/02/22-rdf-syntax-ns#"
   xmlns:svg="http://www.w3.org/2000/svg"
   xmlns="http://www.w3.org/2000/svg"
   xmlns:sodipodi="http://sodipodi.sourceforge.net/DTD/sodipodi-0.dtd"
   xmlns:inkscape="http://www.inkscape.org/namespaces/inkscape"
   version="1.1"
   id="Capa_1"
   x="0px"
   y="0px"
   width="100px"
   height="100px"
   viewBox="0 0 100 100"
   style="enable-background:new 0 0 100 100;"
   xml:space="preserve"
   sodipodi:docname="website-icon.svg"
   inkscape:version="0.92.0 r15299"><metadata
     id="metadata5142"><rdf:RDF><cc:Work
         rdf:about=""><dc:format>image/svg+xml</dc:format><dc:type
           rdf:resource="http://purl.org/dc/dcmitype/StillImage" /></cc:Work></rdf:RDF></metadata><defs
     id="defs5140"><clipPath
       clipPathUnits="userSpaceOnUse"
       id="clipPath5786"><path
         style="fill:none;stroke:#000000;stroke-width:0.48382565px;stroke-linecap:butt;stroke-linejoin:miter;stroke-opacity:1"
         d="M 50.040807,24.744666 87.16999,24.94729 83.851181,46.020212 37.802697,41.562479 Z"
         id="path5788"
         inkscape:connector-curvature="0" /></clipPath></defs><sodipodi:namedview
     pagecolor="#ffffff"
     bordercolor="#666666"
     borderopacity="1"
     objecttolerance="10"
     gridtolerance="10"
     guidetolerance="10"
     inkscape:pageopacity="0"
     inkscape:pageshadow="2"
     inkscape:window-width="1920"
     inkscape:window-height="1058"
     id="namedview5138"
     showgrid="false"
     inkscape:zoom="9.0821889"
     inkscape:cx="39.117424"
     inkscape:cy="58.925668"
     inkscape:window-x="-8"
     inkscape:window-y="-8"
     inkscape:window-maximized="1"
     inkscape:current-layer="g5105" /><g
     id="g5105"><g
       id="g5101"
       transform="translate(8.4745763,-1.6949153)"
       style="fill:#494943;fill-opacity:1"><path
         d="m 26.666,61.538 c 5.534,-0.043 6.223,-1.377 8.027,-6.933 3.327,-8.768 18.309,2.296 9.024,6.136 -9.285,3.842 -22.585,0.84 -17.051,0.797 z"
         id="path5097"
         inkscape:connector-curvature="0"
         style="fill:#494943;fill-opacity:1" /><path
         d="M 83.41,3.756 C 80.722,1.592 76.275,2.658 73.472,6.136 l -28.39,40.336 c -2.803,3.477 -2.789,2.813 -0.104,4.975 2.685,2.164 2.038,2.319 4.841,-1.158 L 83.195,13.972 c 2.803,-3.48 2.901,-8.053 0.215,-10.216 z m -7.301,4.828 c 0,0 -0.416,-0.483 -1.799,-1.589 2.074,-3.387 6.15,-2.766 6.15,-2.766 -3.864,2.282 -4.351,4.355 -4.351,4.355 z"
         id="path5099"
         inkscape:connector-curvature="0"
         style="fill:#494943;fill-opacity:1" /></g><g
       id="g5775"
       transform="matrix(0.28992042,0,0,0.29862219,-202.60917,-128.35375)"
       style="fill:#494943;fill-opacity:1"><g
         id="g5691"
         transform="matrix(0.62605113,0,0,0.58003145,711.7675,479.98491)"
         style="fill:#494943;fill-opacity:1"><g
           id="g5689"
           style="fill:#494943;fill-opacity:1"><path
             style="stroke-width:0.17730914;fill:#494943;fill-opacity:1"
             d="m 9.3574219,19.820312 c -3.0933844,-0.0058 -5.6113281,2.401494 -5.6113281,5.353516 v 53.835938 c 0,2.952022 2.5179382,5.353515 5.6113281,5.353515 H 37.355469 v 3.896485 c 0,3.571076 -3.045021,6.476562 -6.78711,6.476562 h -6.169921 c -1.18305,0 -2.142579,0.915764 -2.142579,2.044922 0,1.129158 0.959529,2.042969 2.142579,2.042969 h 51.626953 c 1.183049,0 2.142578,-0.913811 2.142578,-2.042969 0,-1.129158 -0.959529,-2.044922 -2.142578,-2.044922 h -6.171875 c -3.742089,0 -6.785157,-2.905486 -6.785157,-6.476562 v -3.896485 h 27.998047 c 3.09339,0 5.611328,-2.401493 5.611328,-5.353515 V 25.173828 c 3.63e-4,-2.952022 -2.517938,-5.353515 -5.611328,-5.353516 h -2.693373 l -4.118888,4.087891 6.812261,0 c 0.730921,0 1.326172,0.567934 1.326172,1.265625 V 64.175781 H 8.03125 V 25.173828 c 0,-0.697518 0.5950697,-1.265625 1.3261719,-1.265625 H 65.036125 l 2.557133,-3.977785 z M 8.03125,68.265625 h 84.361328 v 10.744141 c 0,0.697517 -0.59507,1.265625 -1.326172,1.265625 H 9.3574219 c -0.7309207,0 -1.3261719,-0.567934 -1.3261719,-1.265625 z m 33.609375,16.099609 h 17.142578 v 3.894532 c 0,2.43932 0.873595,4.686434 2.333985,6.476562 H 39.306641 c 1.460389,-1.790301 2.333984,-4.037242 2.333984,-6.476562 z"
             transform="matrix(5.5094899,0,0,5.77333,-20.64275,-86.486764)"
             id="path5687"
             inkscape:connector-curvature="0"
             sodipodi:nodetypes="sssscsssssssssscsscsccssccssccsccsssscccsccsc" /></g></g><g
         id="g5697"
         transform="matrix(0.62605113,0,0,0.58003145,711.7675,479.98491)"
         style="fill:#494943;fill-opacity:1"><g
           id="g5695"
           style="fill:#494943;fill-opacity:1"><path
             style="fill:#494943;fill-opacity:1"
             d="m 268.74099,342.30499 a 12.738,12.738 0 0 1 -12.738,12.738 12.738,12.738 0 0 1 -12.738,-12.738 12.738,12.738 0 0 1 12.738,-12.738 12.738,12.738 0 0 1 12.738,12.738 z"
             id="circle5693" /></g></g><g
         id="g5711"
         style="fill:#494943;fill-opacity:1" /><g
         id="g5713"
         style="fill:#494943;fill-opacity:1" /><g
         id="g5715"
         style="fill:#494943;fill-opacity:1" /><g
         id="g5717"
         style="fill:#494943;fill-opacity:1" /><g
         id="g5719"
         style="fill:#494943;fill-opacity:1" /><g
         id="g5721"
         style="fill:#494943;fill-opacity:1" /><g
         id="g5723"
         style="fill:#494943;fill-opacity:1" /><g
         id="g5725"
         style="fill:#494943;fill-opacity:1" /><g
         id="g5727"
         style="fill:#494943;fill-opacity:1" /><g
         id="g5729"
         style="fill:#494943;fill-opacity:1" /><g
         id="g5731"
         style="fill:#494943;fill-opacity:1" /><g
         id="g5733"
         style="fill:#494943;fill-opacity:1" /><g
         id="g5735"
         style="fill:#494943;fill-opacity:1" /><g
         id="g5737"
         style="fill:#494943;fill-opacity:1" /><g
         id="g5739"
         style="fill:#494943;fill-opacity:1" /></g><g
       transform="matrix(1.65338,0.14465201,-0.18226051,2.0832472,-17.8313,-55.34139)"
       id="g5782"
       clip-path="url(#clipPath5786)"><path
         inkscape:connector-curvature="0"
         id="path5778"
         d="m 26.666,61.538 c 5.534,-0.043 6.223,-1.377 8.027,-6.933 3.327,-8.768 18.309,2.296 9.024,6.136 -9.285,3.842 -22.585,0.84 -17.051,0.797 z" /></g></g><g
     id="g5107" /><g
     id="g5109" /><g
     id="g5111" /><g
     id="g5113" /><g
     id="g5115" /><g
     id="g5117" /><g
     id="g5119" /><g
     id="g5121" /><g
     id="g5123" /><g
     id="g5125" /><g
     id="g5127" /><g
     id="g5129" /><g
     id="g5131" /><g
     id="g5133" /><g
     id="g5135" /></svg>
